<svg version="1.1" id="Calque_1" xmlns="http://www.w3.org/2000/svg" x="0" y="0" viewBox="0 0 400 160" xml:space="preserve"><style>.st1{fill:#fff}</style><path fill="#0a3782" d="M-83.6-203.2h566.9v566.9H-83.6z"/><path class="st1" d="M65.6 123.1h-5.1v6.5h-1.2v-13h1.2v5.6h5.1v-5.6h1.2v13h-1.2v-6.5zm9.3-6.5h1.2v13h-1.2v-13zm13 7.4v-1h4.2v6.7h-.9v-2.2c-.4 1.4-1.6 2.4-2.9 2.4-2.7 0-4.2-2.1-4.2-6.7 0-4.7 1.5-6.7 4.2-6.7 2.5 0 3.6 1.6 3.7 3.9h-1.2c0-1.6-.9-2.9-2.6-2.9-1.9 0-3 1.5-3 5.8 0 4.2 1.1 5.8 3 5.8 1.8 0 2.7-1.6 2.7-4.6v-.5h-3zm18.4-.9h-5.1v6.5H100v-13h1.2v5.6h5.1v-5.6h1.2v13h-1.2v-6.5zm13.3.9v1h-4v-1h4zm10.5-6.4h-3.4v-1h7.9v1h-3.4v12.1H130v-12.1zm11.7-1h6.5v1H143v4.8h5v1h-5v5.3h5.5v1h-6.6v-13.1zm22.1 8.6c-.2 3-1.5 4.6-3.9 4.6-2.7 0-4.2-2.1-4.2-6.7 0-4.7 1.5-6.7 4.2-6.7 2.6 0 3.7 1.9 3.7 4h-1.2c0-1.8-.9-3-2.6-3-1.9 0-3 1.5-3 5.8 0 4.2 1.1 5.8 3 5.8 1.6 0 2.6-1.4 2.7-3.7h1.3zm13.8-2.1h-5.1v6.5h-1.2v-13h1.2v5.6h5.1v-5.6h1.2v13h-1.2v-6.5zM197.4 116.6h7.5v2.5h-4.5v2.6h4.2v2.5h-4.2v3h4.7v2.5h-7.7v-13.1zm17.3 6.4l-2.9-6.4h3.4l1.3 4 1.3-4h3.4l-3 6.4 3.2 6.6h-3.5l-1.6-4.3-1.6 4.3h-3.4l3.4-6.6zm13.7-6.4h4.7c3.2 0 3.9 2.3 3.9 4 0 2.3-1.1 4-4.2 4h-1.4v5.1h-3.1v-13.1zm3.1 5.7h.8c1.2 0 1.5-.8 1.5-1.6 0-1-.3-1.8-1.6-1.8h-.8v3.4zM244.4 116.6h7.5v2.5h-4.5v2.6h4.2v2.5h-4.2v3h4.7v2.5h-7.7v-13.1zM259.4 116.6h5.2c2.6 0 3.5 1.6 3.5 3.4 0 1.9-.8 2.8-2.2 3.2 2 .3 2.1 1.5 2.1 3.3.1 2.6.1 2.8.6 3v.2h-3.3c-.2-.4-.3-1.2-.3-2.6 0-2.3-.3-2.7-1.3-2.7h-1.2v5.4h-3.1v-13.2zm3.1 5.5h1c1.2 0 1.6-.9 1.6-1.7 0-1-.4-1.6-1.6-1.6h-.9v3.3zm13.3-5.5h3.1v13h-3.1v-13zm10.9 0h7.5v2.5h-4.5v2.6h4.2v2.5h-4.2v3h4.7v2.5h-7.7v-13.1zm14.9 0h3.5l2.5 8.5v-8.5h2.9v13H307l-2.7-9v9h-2.7v-13zm22.2 4.5c0-1.9-.2-2.7-1.2-2.7-1.2 0-1.3 1.2-1.3 4.6 0 3.9.1 4.9 1.4 4.9 1.1 0 1.3-1.3 1.3-3.3h3v.5c0 2.8-.8 4.9-4.6 4.9-3.9 0-4.2-2.9-4.2-6.9 0-3.3.2-6.7 4.5-6.7 2.7 0 4.2 1.2 4.2 4.2v.5h-3.1zM334 116.6h7.5v2.5H337v2.6h4.2v2.5H337v3h4.7v2.5H334v-13.1z"/><path d="M326.2 79c-1.9 1.6-2.8 3.7-2.8 6.1 0 4 3.5 7.2 7.4 7.2 4.3 0 7.5-3.1 7.5-7.4 0-2.4-1.1-4.3-2.8-5.9h5.2c1 1.9 1.4 3.8 1.4 5.9 0 6.3-4.8 11.5-11.1 11.5-6.5 0-11.3-5.1-11.3-11.7 0-1.9.5-4 1.4-5.7h5.1zm4.6-24c6.3 0 11.2 5 11.2 11.5 0 6.4-4.9 11.5-11.2 11.5-6.3 0-11.2-5-11.2-11.5S324.4 55 330.8 55m0 18.8c4 0 7.3-3.3 7.3-7.3 0-4.1-3.4-7.3-7.3-7.3-4 0-7.3 3.2-7.3 7.3-.1 4 3.3 7.3 7.3 7.3m-7.9-25.2c-1.8-1.3-3.3-3.4-3.3-5.8 0-2.8 1.4-4.8 3.7-6.2-2.2-1.3-3.7-3.9-3.7-6.6 0-5.6 4.3-7.1 9.1-7.1h12.6V27h-11.9c-2.7 0-6.2.4-6.2 4 0 4.4 4.5 4.7 7.7 4.7h10.4v4.1h-11.2c-2.7 0-6.9.1-6.9 3.9 0 4.4 4.4 4.8 7.7 4.8h10.4v4.1h-21.1v-4.1h2.7zm15.3 48.5c2.1 0 3.7 1.5 3.7 3.4 0 1.8-1.7 3.4-3.7 3.4s-3.7-1.5-3.7-3.4 1.7-3.4 3.7-3.4" fill="#0096ca"/><path class="st1" d="M147 22.6h-29.7v53.2h-25V22.6H59.1V101h95.5c24.6 0 38.5-14.7 38.5-38-.1-28.8-18-40.4-46.1-40.4m1.3 54.9h-1.9V47.2h1.9c11.1 0 17.9 4.7 17.9 15.7 0 10.2-7.8 14.6-17.9 14.6"/><path d="M299.3 77.1c-9.1 0-17-6.7-17-15.3 0-8.5 7.5-15.3 16.6-15.3 6.3 0 12 3.1 16.6 6.8V24.6c-6.4-2-13.3-3.1-20.1-3.1-24.6 0-43.8 18.3-43.9 41.1 0 4.7.9 9.2 2.4 13.3h-26.6V22.7h-30.5v78.4h59.5v-20c7 12.7 21.2 21.2 37.9 21.3 5.3 0 16.2-.9 21.3-3V71c-4.6 3.8-9.8 6.1-16.2 6.1" fill="#0096c8"/></svg>